<?xml version="1.0" standalone="no"?>
<!DOCTYPE svg PUBLIC "-//W3C//DTD SVG 20010904//EN"
 "http://www.w3.org/TR/2001/REC-SVG-20010904/DTD/svg10.dtd">
<svg version="1.0" xmlns="http://www.w3.org/2000/svg"
 width="342.000000pt" height="342.000000pt" viewBox="0 0 342.000000 342.000000"
 preserveAspectRatio="xMidYMid meet">
<metadata>
Created by potrace 1.14, written by Peter Selinger 2001-2017
</metadata>
<g transform="translate(0.000000,342.000000) scale(0.100000,-0.100000)"
fill="#000000" stroke="none">
<path d="M1062 3125 c-23 -13 -104 -77 -180 -142 -76 -65 -165 -140 -198 -168
-74 -61 -104 -102 -115 -158 -11 -56 -11 -2119 0 -2176 10 -52 36 -89 82 -116
32 -19 52 -20 349 -20 280 0 319 2 347 17 29 16 360 286 445 363 51 46 68 92
68 185 0 86 3 90 68 90 54 0 192 35 271 69 87 37 136 72 357 256 99 82 197
163 218 180 90 71 156 188 187 327 26 118 37 501 20 683 -20 218 -63 327 -171
435 -96 96 -218 151 -410 185 -69 12 -198 15 -690 15 l-605 0 -43 -25z m1188
-105 c175 -12 263 -31 353 -78 110 -57 196 -172 231 -310 24 -93 23 -681 0
-774 -35 -135 -119 -251 -221 -306 -128 -68 -302 -92 -672 -92 l-206 0 0 -303
c0 -243 -3 -307 -14 -320 -12 -15 -46 -17 -300 -17 -210 0 -290 3 -299 12 -9
9 -12 266 -12 1093 l0 1082 23 11 c28 14 914 16 1117 2z"/>
<path d="M1366 2815 c-9 -25 -7 -1778 3 -1793 5 -9 26 -12 65 -10 l57 3 2 310
2 310 385 6 c319 4 395 8 443 22 236 69 316 211 317 559 1 346 -65 488 -263
569 l-82 34 -461 3 c-421 3 -462 2 -468 -13z m834 -114 c151 -20 223 -60 267
-149 l28 -57 0 -265 c0 -254 -1 -267 -22 -306 -31 -58 -93 -108 -161 -130 -52
-17 -92 -19 -437 -19 l-380 0 -3 454 c-1 327 1 458 9 467 9 11 72 14 323 14
171 -1 340 -4 376 -9z"/>
<path d="M1734 2521 c-2 -2 -4 -132 -4 -288 l0 -284 214 3 c198 3 217 5 243
24 55 40 68 84 71 247 3 139 2 150 -21 201 -39 86 -53 90 -295 96 -112 3 -206
3 -208 1z"/>
</g>
</svg>
